<svg xmlns="http://www.w3.org/2000/svg" width="50" height="50" viewBox="0 0 50 50"><g transform="translate(-1186 -333)"><path d="M50,25A25,25,0,1,1,25,0,25,25,0,0,1,50,25" transform="translate(1186 333)" fill="#13a974" opacity="0.1"/><path d="M21.844,16.589a.877.877,0,0,1,1.752.1.927.927,0,0,1-.927.927,1.223,1.223,0,0,1-.824-1.03h0m0-3.915a.877.877,0,0,1,1.752.1.927.927,0,0,1-.927.927,1.11,1.11,0,0,1-.824-1.03h0m0-3.812a.927.927,0,1,1,.927.927h0a1.087,1.087,0,0,1-.927-.927m0-3.915a.877.877,0,0,1,1.752.1.927.927,0,0,1-.927.927,1.11,1.11,0,0,1-.824-1.03h0M9.583,9.273,7.316,4.328A.69.69,0,0,1,7.625,3.5H8.758a.936.936,0,0,1,.721.309L13.807,9.17l2.061-.1h.618c1.958,0,3.091.618,3.091,1.649a1.423,1.423,0,0,1-1.03,1.339,4.568,4.568,0,0,1-2.061.309h-.618l-2.061-.1L9.376,17.62a.936.936,0,0,1-.721.309H7.831a.486.486,0,0,1-.515-.515v-.206l2.267-4.946-3.4-.1L4.946,13.7a.832.832,0,0,1-.927.412H3.5a.787.787,0,0,1-.515-.206,1.307,1.307,0,0,1-.1-.618l.721-2.473v-.1h0v-.1l-.721-2.37a.453.453,0,0,1,.1-.515c.1-.206.206-.309.412-.309h.721a1.119,1.119,0,0,1,.927.412L6.182,9.273ZM3.812,0A3.871,3.871,0,0,0,0,3.812V17.62a3.8,3.8,0,0,0,3.812,3.812h20.3a3.8,3.8,0,0,0,3.812-3.812V14.734A1.33,1.33,0,0,0,27,13.395a2.838,2.838,0,0,1-1.752-3.606A2.944,2.944,0,0,1,27,8.037,1.467,1.467,0,0,0,27.923,6.7V3.812A3.8,3.8,0,0,0,24.111,0Z" transform="translate(1197 347)" fill="#13a974"/></g></svg>