<svg xmlns="http://www.w3.org/2000/svg" width="17" height="17" viewBox="0 0 17 17"><g transform="translate(-972 -140)"><rect width="17" height="17" transform="translate(972 140)" fill="none"/><g transform="translate(972 139.7)"><path d="M1.4,9.5V4a.684.684,0,0,0-.7-.7A.684.684,0,0,0,0,4v9a.684.684,0,0,0,.7.7.684.684,0,0,0,.7-.7V11.7H15.6V13A.7.7,0,0,0,17,13V9.5Z" fill="#929aa4"/><path d="M17,8.9H6.4V6.3A1.367,1.367,0,0,1,7.8,4.9h6.4A2.8,2.8,0,0,1,17,7.7Z" fill="#929aa4"/><path d="M4,8.6A1.752,1.752,0,0,0,5.7,6.9,1.752,1.752,0,0,0,4,5.2,1.752,1.752,0,0,0,2.3,6.9,1.685,1.685,0,0,0,4,8.6Z" fill="#929aa4"/></g></g></svg>