<?xml version="1.0" encoding="UTF-8"?><svg id="Layer_1" xmlns="http://www.w3.org/2000/svg" width="50" height="50" xmlns:xlink="http://www.w3.org/1999/xlink" viewBox="0 0 50 50"><defs><linearGradient id="linear-gradient" x1="-894.72" y1="548.31" x2="-893.42" y2="548.31" gradientTransform="translate(21214.57 16419.4) scale(23.7 -29.9)" gradientUnits="userSpaceOnUse"><stop offset="0" stop-color="#ffae53"/><stop offset="1" stop-color="#ff742c"/></linearGradient><linearGradient id="linear-gradient-2" x1="-869.54" y1="345.84" x2="-867.4" y2="345.84" gradientTransform="translate(12505.01 827.44) scale(14.37 -2.34)" gradientUnits="userSpaceOnUse"><stop offset="0" stop-color="#ffae53"/><stop offset="1" stop-color="#ff742c"/></linearGradient><linearGradient id="linear-gradient-3" x1="-838.5" y1="345.84" x2="-835.34" y2="345.84" gradientTransform="translate(8143.24 832.12) scale(9.7 -2.34)" gradientUnits="userSpaceOnUse"><stop offset="0" stop-color="#ffae53"/><stop offset="1" stop-color="#ff742c"/></linearGradient><linearGradient id="linear-gradient-4" x1="-805.16" y1="345.84" x2="-800.9" y2="345.84" gradientTransform="translate(5798.9 836.79) scale(7.19 -2.34)" gradientUnits="userSpaceOnUse"><stop offset="0" stop-color="#ffae53"/><stop offset="1" stop-color="#ff742c"/></linearGradient><linearGradient id="linear-gradient-5" x1="-833.24" y1="509.02" x2="-829.87" y2="509.02" gradientTransform="translate(7592.31 4660.33) scale(9.1 -9.1)" gradientUnits="userSpaceOnUse"><stop offset="0" stop-color="#ffae53"/><stop offset="1" stop-color="#ff742c"/></linearGradient><linearGradient id="linear-gradient-6" x1="-876.84" y1="510.64" x2="-874.93" y2="510.64" gradientTransform="translate(14128.23 4820.01) scale(16.1 -9.37)" gradientUnits="userSpaceOnUse"><stop offset="0" stop-color="#ffae53"/><stop offset="1" stop-color="#ff742c"/></linearGradient></defs><path d="m25,50c13.81,0,25-11.19,25-25S38.81,0,25,0,0,11.19,0,25s11.19,25,25,25Z" fill="#ff742c" isolation="isolate" opacity=".1"/><path d="m20.13,39.9h-2.69c-2.58,0-4.67-2.09-4.67-4.67V14.67c0-2.58,2.09-4.67,4.67-4.67h14.36c2.58,0,4.67,2.09,4.67,4.67v6.95c0,.65-.52,1.17-1.17,1.17s-1.17-.52-1.17-1.17v-6.95c0-1.29-1.05-2.34-2.34-2.34h-14.36c-1.29,0-2.34,1.05-2.34,2.34v20.55c0,1.29,1.05,2.34,2.34,2.34h2.69c.65,0,1.17.52,1.17,1.17s-.52,1.17-1.17,1.17h0Z" fill="url(#linear-gradient)"/><path d="m30.63,19.34h-12.03c-.65,0-1.17-.52-1.17-1.17s.52-1.17,1.17-1.17h12.03c.65,0,1.17.52,1.17,1.17s-.52,1.17-1.17,1.17Z" fill="url(#linear-gradient-2)"/><path d="m25.97,24.02h-7.36c-.65,0-1.17-.52-1.17-1.17s.52-1.17,1.17-1.17h7.36c.65,0,1.17.52,1.17,1.17s-.52,1.17-1.17,1.17Z" fill="url(#linear-gradient-3)"/><path d="m23.46,28.69h-4.85c-.65,0-1.17-.52-1.17-1.17s.52-1.17,1.17-1.17h4.85c.65,0,1.17.52,1.17,1.17s-.52,1.17-1.17,1.17Z" fill="url(#linear-gradient-4)"/><path d="m31.46,32.83c-2.51,0-4.55-2.04-4.55-4.55s2.04-4.55,4.55-4.55,4.55,2.04,4.55,4.55h0c0,2.51-2.04,4.55-4.55,4.55Zm0-6.77c-1.23,0-2.22.99-2.22,2.22,0,1.23.99,2.22,2.22,2.22,1.23,0,2.22-.99,2.22-2.22s-.99-2.22-2.22-2.22Z" fill="url(#linear-gradient-5)"/><path d="m37.16,39.9h-11.4c-.71,0-1.38-.32-1.82-.87-.45-.55-.63-1.28-.48-1.98.39-1.83,1.38-3.47,2.81-4.66,3.49-2.87,8.64-2.36,11.5,1.12.82,1,1.39,2.17,1.67,3.43,0,.03.02.06.02.09.27,1.29-.56,2.54-1.85,2.81-.15.03-.31.05-.46.05h0Zm-5.7-7.03c-2.77.01-5.15,1.95-5.72,4.66,0,.03.01.03.01.03h11.4s.02-.02.02-.03h0c-.57-2.71-2.95-4.65-5.72-4.66h0Z" fill="url(#linear-gradient-6)"/></svg>