<svg xmlns="http://www.w3.org/2000/svg" width="17" height="17" viewBox="0 0 17 17"><g transform="translate(-1009 -140)"><rect width="17" height="17" transform="translate(1009 140)" fill="none"/><g transform="translate(1009 139.95)"><path d="M16.476.5a1.686,1.686,0,0,0-2.3,0L10.684,4.112,2.2,1.3.4,3.109l7.09,4.413L3.894,11.233l-2.3-.4L0,12.436l3.4,1.2,1.2,3.41,1.6-1.6-.4-2.307L9.486,9.528l4.394,7.121,1.8-1.805-2.8-8.525,3.595-3.51A1.531,1.531,0,0,0,16.476.5Z" transform="translate(0 0)" fill="#929aa4"/></g></g></svg>