<svg xmlns="http://www.w3.org/2000/svg" width="17" height="17" viewBox="0 0 17 17"><g transform="translate(-1042 -140)"><rect width="17" height="17" transform="translate(1042 140)" fill="none"/><g transform="translate(354 -297)"><g transform="translate(688 437)"><g transform="translate(-1)"><path d="M9.8,1.8a6.3,6.3,0,1,0,6.3,6.3h0A6.274,6.274,0,0,0,9.8,1.8Zm0,11.1A4.867,4.867,0,0,1,5,8.1,4.739,4.739,0,0,1,9.8,3.3h0A4.781,4.781,0,0,1,14.6,8v.1a4.739,4.739,0,0,1-4.8,4.8Z" fill="#929aa4"/></g><g transform="translate(-1)"><path d="M9.8,4.6A3.543,3.543,0,0,0,6.3,8.1a3.5,3.5,0,1,0,7,0A3.543,3.543,0,0,0,9.8,4.6Z" fill="#929aa4"/></g><g transform="translate(-2)"><path d="M18.6,8.6V1c0-.1,0-.1-.1-.2-.1,0-.1,0-.2.1a7.1,7.1,0,0,0-1.5,4.4V8.1a.645.645,0,0,0,.6.6h.2c-.2,2.5-.4,5.9-.4,6.3,0,.6.4,1.2.9,1.2s.9-.5.9-1.2C19,14.5,18.8,11.1,18.6,8.6Z" fill="#929aa4"/></g><path d="M2.5,7.1a1.6,1.6,0,0,0,.8-1.4L3.1,1.8a.265.265,0,0,0-.3-.3.265.265,0,0,0-.3.3l.2,3.1c0,.1-.1.3-.2.3H2.4c-.1,0-.3-.1-.3-.2V4.9L2,1.8c0-.1-.1-.3-.2-.3H1.7c-.1,0-.3.1-.3.2v.1L1.3,4.9c0,.1-.1.3-.2.3H1C.9,5.2.7,5.1.7,5V4.9L.8,1.8c0-.1-.1-.3-.2-.3H.5a.265.265,0,0,0-.3.3L0,5.7A1.6,1.6,0,0,0,.8,7.1a.807.807,0,0,1,.4.9C1,10.5.8,14.5.8,14.9c0,.6.4,1.2.9,1.2s.9-.5.9-1.2c0-.4-.2-4.5-.5-6.9A.807.807,0,0,1,2.5,7.1Z" fill="#929aa4"/></g></g></g></svg>