<svg width="50" height="51" viewBox="0 0 50 51" fill="none" xmlns="http://www.w3.org/2000/svg">
<path opacity="0.1" d="M25 50.3012C38.8071 50.3012 50 39.0409 50 25.1506C50 11.2603 38.8071 0 25 0C11.1929 0 0 11.2603 0 25.1506C0 39.0409 11.1929 50.3012 25 50.3012Z" fill="#13A974"/>
<path d="M38.2582 22.5408C37.9956 21.0737 36.6701 19.798 35.2165 19.5663C34.5505 19.4557 32.7482 19.326 31.2042 19.2771C31.2336 19.798 31.2483 20.3359 31.2504 20.8909C31.2504 22.4281 31.1391 23.8122 30.9164 25.1219V25.1326C30.7337 26.1552 30.1938 27.1418 29.3955 27.9178C28.6078 28.6833 27.6205 29.1935 26.6122 29.3551C25.6879 29.5082 23.1713 29.6698 21.3942 29.6974L21.3857 29.7102C21.4025 29.8229 21.4194 29.9313 21.4383 30.0334C21.7008 31.5004 23.0285 32.7761 24.48 33.0058C25.3581 33.1525 28.194 33.3289 29.8304 33.314L31.7 36.3204C31.9667 36.7478 32.5234 36.8754 32.9456 36.6053C33.0591 36.5331 33.1557 36.4353 33.2271 36.3204L35.2984 32.9909C36.7184 32.7272 38.0019 31.4707 38.2603 30.0334C38.4115 29.1468 38.5523 27.937 38.5544 26.2828C38.5565 24.6308 38.4052 23.4231 38.2561 22.5386L38.2582 22.5408Z" fill="url(#paint0_linear_225_96)"/>
<path d="M29.8013 17.0575C29.5143 15.4932 28.0688 14.1305 26.4863 13.8843C25.5269 13.7272 22.4131 13.5383 20.6314 13.5553C18.8518 13.5383 15.7381 13.7272 14.7787 13.8843C13.1961 14.1305 11.7484 15.4953 11.4636 17.0575C11.2987 18.0042 11.1445 19.2968 11.1445 21.0606C11.1445 22.8245 11.2987 24.1171 11.4636 25.0617C11.7442 26.5984 13.1426 27.9399 14.6909 28.22L16.948 31.7732C17.2392 32.2296 17.8474 32.3654 18.3057 32.0789C18.4299 32.0003 18.5349 31.8963 18.6141 31.7732L20.6528 28.5639C22.4367 28.5788 25.5269 28.392 26.4841 28.2349C28.0667 27.9887 29.5122 26.6239 29.7992 25.0617C29.9619 24.115 30.1183 22.8224 30.1204 21.0585C30.1226 19.2947 29.9641 18.0042 29.7992 17.0575H29.8013ZM21.5544 23.1344C21.5651 23.6247 21.1732 24.0301 20.6806 24.0407C20.6742 24.0407 20.6699 24.0407 20.6635 24.0407C19.0852 24.0259 17.5048 23.9898 15.9265 23.9367C15.419 23.9091 15.0121 23.5143 14.9714 23.0134C14.9414 22.5231 15.3333 22.1347 15.8387 22.1453C17.4384 22.1814 19.0403 22.2047 20.6421 22.2153C21.1496 22.2217 21.5587 22.6313 21.5587 23.1344H21.5544ZM25.2613 20.0737C22.1112 20.0906 18.961 20.0779 15.8109 20.0376C15.3033 20.0291 14.8815 19.6258 14.8729 19.1334C14.8643 18.6409 15.2755 18.244 15.7852 18.2461C18.946 18.2525 22.109 18.2546 25.2699 18.2525C25.7732 18.2504 26.1843 18.6515 26.1865 19.1503C26.1865 19.1525 26.1865 19.1567 26.1865 19.1588C26.18 19.664 25.7689 20.0715 25.2592 20.0758L25.2613 20.0737Z" fill="url(#paint1_linear_225_96)"/>
<defs>
<linearGradient id="paint0_linear_225_96" x1="21.3878" y1="28.0156" x2="38.5586" y2="28.0156" gradientUnits="userSpaceOnUse">
<stop stop-color="#84E8C1"/>
<stop offset="1" stop-color="#71CAAB"/>
</linearGradient>
<linearGradient id="paint1_linear_225_96" x1="11.1445" y1="22.8903" x2="30.1247" y2="22.8903" gradientUnits="userSpaceOnUse">
<stop stop-color="#33D897"/>
<stop offset="1" stop-color="#13A974"/>
</linearGradient>
</defs>
</svg>
