<svg xmlns="http://www.w3.org/2000/svg" width="24" height="24" viewBox="0 0 24 24"><rect width="24" height="24" fill="none"/><path d="M6.4,9.8A5.327,5.327,0,0,1,2.9,6.9a6.753,6.753,0,0,1,1.4-.2,4.758,4.758,0,0,1,2.6.4A.756.756,0,0,1,7,6.7a9.288,9.288,0,0,0-1.3-.4A3.408,3.408,0,0,0,6.8,3.8,1.925,1.925,0,0,0,5,1.7,2,2,0,0,0,2.7,3.1a2.2,2.2,0,0,0,.1,1.4,4,4,0,0,0,1,1.8.367.367,0,0,0-.3.1,4.793,4.793,0,0,0-2,.7c-.1.1-.2.1-.1.3.3.5.5,1,.8,1.5a4.3,4.3,0,0,0,.9,1c.2.2.2.3,0,.4a.367.367,0,0,1-.3-.1,7.492,7.492,0,0,1-1.5-2,1.421,1.421,0,0,0-.2-.6,1.613,1.613,0,0,0-.3.9v3.9c0,.3,0,.3.3.3H4.6L6.5,9.8ZM3.1,4.2A.367.367,0,0,0,3,3.9V3.8a9.7,9.7,0,0,0,3.4,0A3.1,3.1,0,0,1,5.2,6.1c-.3.3-.7.2-1.1-.1a4,4,0,0,1-1-1.8Z" fill="#999"/><path d="M22.1,6.9a14.58,14.58,0,0,1-1.9-.7,3.408,3.408,0,0,0,1.1-2.5,1.925,1.925,0,0,0-1.8-2.1,2.071,2.071,0,0,0-2.3,1.5,2.2,2.2,0,0,0,.1,1.4,4,4,0,0,0,1,1.8.367.367,0,0,0-.3.1,2.935,2.935,0,0,0-1,.3,4.869,4.869,0,0,1,.1,1.2,5.853,5.853,0,0,1-.2,1.3,4.62,4.62,0,0,0,.7.7c.2.2.2.3,0,.4a.367.367,0,0,1-.3-.1,2.651,2.651,0,0,0-.5-.6,4.875,4.875,0,0,1-.4,1.1c.3.1.5.2.8.3a4.889,4.889,0,0,1,2.2,1.8h3.5c.3,0,.3,0,.3-.4V8.6a1.751,1.751,0,0,0-1.1-1.7ZM17.7,4.2a.367.367,0,0,0-.1-.3V3.8a9.15,9.15,0,0,0,3.3,0,3.1,3.1,0,0,1-1.2,2.3c-.3.3-.7.2-1.1-.1a3.1,3.1,0,0,1-.9-1.8Zm5.1,8.2H21.3V9.9c0-.1-.1-.2-.2-.3-.1.1-.2.1-.3.2v.1A5.327,5.327,0,0,1,17.3,7a6.753,6.753,0,0,1,1.4-.2,5.579,5.579,0,0,1,3.1.6,1.416,1.416,0,0,1,.9,1.4c.1-.2.1,3.6.1,3.6Z" fill="#999"/><path d="M16.5,12.8h0c-.5-.2-.8-.3-1.2-.5l-1.8-.6a6.442,6.442,0,0,0,1.8-4,3.264,3.264,0,0,0-2.8-3.4H12A3.211,3.211,0,0,0,8.9,6.7,4.446,4.446,0,0,0,9,9a6.6,6.6,0,0,0,1.6,2.8c-.2,0-.3.1-.5.1a8.331,8.331,0,0,0-1.5.4,6.117,6.117,0,0,0-1.2.5A.758.758,0,0,0,7,13c-.2.1-.3.2-.2.5.4.8.8,1.6,1.3,2.4a9.955,9.955,0,0,0,1.4,1.5c.2.2.3.5,0,.6H9.4c-.1,0-.3-.1-.4-.1a9.017,9.017,0,0,1-2.3-3.2c-.1-.3-.3-.6-.4-.9a2.822,2.822,0,0,0-.4,1.5v6.6c0,.5.1.5.5.5H17.8c.5,0,.5-.1.5-.6V15.4a2.706,2.706,0,0,0-1.8-2.6Zm-7-4.3A4.331,4.331,0,0,1,9.4,8V7.8A22.751,22.751,0,0,0,12,8a12.412,12.412,0,0,0,2.7-.3,5.682,5.682,0,0,1-1.8,3.7,1.33,1.33,0,0,1-.8.3,1.433,1.433,0,0,1-1-.4A5.7,5.7,0,0,1,9.5,8.5Zm8.1,12.9v.4H15.3V17.5c0-.2-.2-.3-.2-.5-.2.1-.3.2-.5.3v.1a8.65,8.65,0,0,1-5.5-4.6,19.192,19.192,0,0,1,2.2-.3h.8a10.588,10.588,0,0,1,4.2.9,2.166,2.166,0,0,1,1.4,2.1C17.6,17.2,17.6,19.6,17.6,21.4Z" fill="#999"/></svg>