<svg xmlns="http://www.w3.org/2000/svg" xmlns:xlink="http://www.w3.org/1999/xlink" width="165.964" height="60" viewBox="0 0 165.964 60"><defs><radialGradient id="a" cx="0.648" cy="-0.671" r="2.015" gradientTransform="matrix(0.933, 0, 0, -1.013, -0.342, 10.018)" gradientUnits="objectBoundingBox"><stop offset="0" stop-color="#b4d039"/><stop offset="0.31" stop-color="#8ab840"/><stop offset="1" stop-color="#069247"/></radialGradient><radialGradient id="b" cx="16.021" cy="-10.955" r="20.273" gradientTransform="matrix(1.431, 0, 0, -1.013, 52.972, 106.366)" xlink:href="#a"/><radialGradient id="c" cx="10.385" cy="-9.077" r="16.801" gradientTransform="matrix(1.191, 0, 0, -1.013, 16.38, 88.155)" xlink:href="#a"/><radialGradient id="d" cx="15.303" cy="-10.895" r="20.17" gradientTransform="matrix(1.662, 0, 0, -1.013, 96.342, 105.836)" xlink:href="#a"/><radialGradient id="e" cx="10.783" cy="-9.166" r="17.239" gradientTransform="matrix(1.511, 0, 0, -1.013, 58.368, 90.747)" xlink:href="#a"/><radialGradient id="f" cx="10.916" cy="-10.93" r="20.221" gradientTransform="matrix(1.434, 0, 0, -1.013, 55.642, 106.1)" xlink:href="#a"/><radialGradient id="g" cx="10.141" cy="-9.543" r="17.66" gradientTransform="matrix(1.679, 0, 0, -1.013, 89.639, 92.656)" xlink:href="#a"/><radialGradient id="h" cx="23.333" cy="-10.928" r="20.221" gradientTransform="matrix(3.743, 0, 0, -1.013, 930.883, 106.095)" xlink:href="#a"/><radialGradient id="i" cx="8.609" cy="-10.955" r="20.273" gradientTransform="matrix(1.431, 0, 0, -1.013, 56.165, 106.366)" xlink:href="#a"/><radialGradient id="j" cx="5.166" cy="-10.955" r="20.273" gradientTransform="matrix(1.021, 0, 0, -1.013, 1.959, 106.366)" xlink:href="#a"/><radialGradient id="k" cx="16.071" cy="-10.928" r="20.221" gradientTransform="matrix(3.779, 0, 0, -1.013, 974.892, 106.095)" xlink:href="#a"/><radialGradient id="l" cx="10.926" cy="-10.925" r="20.221" gradientTransform="matrix(2.848, 0, 0, -1.013, 489.87, 106.1)" xlink:href="#a"/><radialGradient id="m" cx="3.511" cy="-10.925" r="20.221" gradientTransform="matrix(1, 0, 0, -1.013, 0, 106.1)" xlink:href="#a"/><radialGradient id="n" cx="2.88" cy="-10.925" r="20.221" gradientTransform="matrix(1.146, 0, 0, -1.013, 15.767, 106.1)" xlink:href="#a"/><radialGradient id="o" cx="6.264" cy="-10.928" r="20.221" gradientTransform="matrix(3.743, 0, 0, -1.013, 977.904, 106.095)" xlink:href="#a"/></defs><g transform="translate(-3.79 -2.69)"><path d="M58.063,15.61,35.957,2.69,13.852,15.61A20.468,20.468,0,0,0,3.79,33.248V62.69c.792-.324,1.621-.636,2.485-.949.648-.228,1.309-.456,1.981-.672V33.236a15.947,15.947,0,0,1,7.817-13.724L35.957,7.9,55.829,19.524a15.921,15.921,0,0,1,7.817,13.724V60.2q2.305.648,4.467,1.4V33.248A20.483,20.483,0,0,0,58.063,15.61Z" fill="url(#a)"/><path d="M110.2,49.42c.78-.048,1.537-.1,2.281-.156a5.375,5.375,0,0,0,3.206-1.165,4.85,4.85,0,0,0,1.561-3.686c.06-2.546.036-5.1.048-7.649.012-2.846.048-5.691.036-8.549a13.156,13.156,0,0,0-.276-2.738,3.976,3.976,0,0,0-3.674-3.446c-2.558-.24-5.151-.216-7.8-.3V33.463a3.635,3.635,0,0,0,3.482-2.449,22.965,22.965,0,0,0,.576-3.638,10.4,10.4,0,0,0,0-1.369h3.554V45.182h-3.026c-2.473,0-4.947.1-7.408-.06-3.026-.192-5.739-1.225-7.216-4.142a10.723,10.723,0,0,1-1.2-4.179c-.168-3.386-.06-6.8-.048-10.194a5.028,5.028,0,0,1,.06-.564H97.83v.865c.012,3.014.012,6.016.048,9.029a9.667,9.667,0,0,0,.192,1.849,3.97,3.97,0,0,0,3.53,3.506c2.63.276,5.283.264,7.985.384v-5.8a12.893,12.893,0,0,1-7.6,1.513V21.84H94.348V18.285c.2-.012.42-.048.636-.048,5.763,0,11.527-.12,17.278.036,5.055.132,8.273,3.134,8.489,8.333.192,4.743.072,9.51.1,14.265,0,1.165.084,2.341,0,3.506-.384,4.935-2.99,8.069-8.189,8.489-.792.06-1.585.1-2.473.144V49.444h0Z" transform="translate(18.156 3.112)" fill="#26374a"/><path d="M75.122,18.24H93.949c.012.3.048.564.048.841,0,3.3.072,6.616-.036,9.93-.12,3.674-.816,7.216-3.014,10.278-.54.756-1.189,1.429-1.873,2.233H93.9V45.1H75.11V41.534h1.681a17.408,17.408,0,0,0,6.172-.889,10.376,10.376,0,0,0,6.916-7.853c.889-3.578.42-7.216.588-10.9H78.676v11.6a3.916,3.916,0,0,0,3.794-3.314,32.95,32.95,0,0,0,.348-3.278c.024-.288.06-.588.1-.985,1.165.072,2.281.132,3.386.2.492,8.357-3.83,11.767-11.191,11.227V18.252Z" transform="translate(14.315 3.121)" fill="#26374a"/><path d="M126.282,18.19v3.554c.985.048,1.945.084,2.918.132,2.425.144,4.082,1.369,4.467,3.578a14.253,14.253,0,0,1,.1,4.167,4.368,4.368,0,0,1-4.551,4.058l-3.062.156c.132,1.525.18,2.99.408,4.419.564,3.518,3.026,6.22,6.52,6.52,3.986.348,8.009.216,12.019.288a.71.71,0,0,0,.1-.06V18.19h-18.9Zm15.309,23.258a1.584,1.584,0,0,1-.36.084c-2.149,0-4.311.036-6.46-.036-2.774-.1-4.5-1.657-4.755-4.2.768-.228,1.549-.408,2.305-.684a7.653,7.653,0,0,0,4.755-5.367,12.132,12.132,0,0,0,.444-4.8,20.916,20.916,0,0,0-1.189-3.974,3.673,3.673,0,0,0-.312-.612h5.571V41.46h0Z" transform="translate(24.56 3.111)" fill="#26374a"/><path d="M119.92,18.25h3.422V45.062H119.92V18.25Z" transform="translate(23.31 3.123)" fill="#26374a"/><path d="M90.6,12.82v3.638H76.035a3.524,3.524,0,0,0-2.437.961c-.072.072-.144.144-.2.216a4.789,4.789,0,0,0-1.057,3.182c-.072,4.959-.048,11.767-.06,16.738q0,4.3-.024,8.633h-3.53V24.611c0-1.237-.048-2.473.012-3.71a10.09,10.09,0,0,1,1.237-4.467,6.978,6.978,0,0,1,4.395-3.518l.492-.072H90.612Z" transform="translate(13.03 2.033)" fill="#26374a"/><path d="M71.7,44.186H68.41V43.85H71.7Zm-2.4,2.87v.468a.629.629,0,0,0,.7.7H71.34v.336H69.983a1.158,1.158,0,0,1-.877-.336,1.234,1.234,0,0,1-.336-.889V46.9l1.753-.708a.373.373,0,0,0,.288-.348V44.811H69.623a.293.293,0,0,0-.24.1.335.335,0,0,0-.1.24v.913H68.77v-.792a.723.723,0,0,1,.24-.54.743.743,0,0,1,.528-.24h1.789v1.165a.8.8,0,0,1-.168.468,1.032,1.032,0,0,1-.444.372l-1.429.576h0Z" transform="translate(12.971 8.262)" fill="url(#b)"/><path d="M74.97,47.586V45.173l-1.945-.7v1.513h.252a.444.444,0,0,0,.252-.072.449.449,0,0,0,.156-.18.8.8,0,0,0,.072-.24c.012-.084.024-.168.036-.24h.516v1.669a1.011,1.011,0,0,1-.084.42.975.975,0,0,1-.228.348,1.2,1.2,0,0,1-.348.24,1.029,1.029,0,0,1-.432.084h-.624a1.092,1.092,0,0,1-.444-.1,1.223,1.223,0,0,1-.36-.252,1.182,1.182,0,0,1-.24-.36,1.143,1.143,0,0,1-.084-.456V44.849h.516v2.185a.644.644,0,0,0,.18.456.6.6,0,0,0,.444.18h.612a.572.572,0,0,0,.408-.168.593.593,0,0,0,.168-.408v-.925a.956.956,0,0,1-.516.144H72.5V44.176H71.08V43.84h4.767v.336H73.193L75.487,45v4.515h-.564a1.158,1.158,0,0,1-.877-.336,1.234,1.234,0,0,1-.336-.889v-.18l1.261-.528h0Zm0,.36-.732.312v.228a.629.629,0,0,0,.7.7h.036V47.934h0Z" transform="translate(13.506 8.26)" fill="url(#c)"/><path d="M78.906,48.561H77.273a1.158,1.158,0,0,1-.877-.336,1.234,1.234,0,0,1-.336-.889V45.607h.516v1.909a.629.629,0,0,0,.7.7h1.1V46.976a.629.629,0,0,0-.7-.7h-.3v-.336h.66a.293.293,0,0,0,.24-.1.335.335,0,0,0,.1-.24V44.166h-.732a.293.293,0,0,0-.24.1.335.335,0,0,0-.1.24v1.009h-.516v-.9a.723.723,0,0,1,.24-.54.743.743,0,0,1,.528-.24h1.333V45.5a.769.769,0,0,1-.24.54,2.193,2.193,0,0,1-.192.156.687.687,0,0,1,.1.084,1.234,1.234,0,0,1,.336.889v1.381h0Z" transform="translate(14.506 8.258)" fill="url(#d)"/><path d="M81.541,48.7h-.516a1.158,1.158,0,0,1-.877-.336,1.234,1.234,0,0,1-.336-.889V44.985h.516v2.666a.629.629,0,0,0,.7.7h.492a.731.731,0,0,0,.516-.18.711.711,0,0,0,.18-.516V46.4a1.265,1.265,0,0,1-.684.18h-.6V44.3H79.44v-.336H81.9v-.336a.171.171,0,0,0-.048-.1.136.136,0,0,0-.1-.036H80.124V43.16h1.645a.59.59,0,0,1,.456.192.634.634,0,0,1,.192.468v.144H83.1V44.3H81.445v1.945h.072a.731.731,0,0,0,.516-.18.711.711,0,0,0,.18-.516v-.576h.516v2.485a1.186,1.186,0,0,1-.336.889,1.158,1.158,0,0,1-.877.336" transform="translate(15.184 8.123)" fill="url(#e)"/><path d="M84.149,46.458h-.828v.985a.629.629,0,0,0,.7.7h.324v.336H84a1.158,1.158,0,0,1-.877-.336,1.234,1.234,0,0,1-.336-.889V46.121h1.021v-.564a.293.293,0,0,0-.1-.24.335.335,0,0,0-.24-.1h-.7V44.176h-.36V43.84h3.29v.336h-.36v4.383h-.516V47.166a.711.711,0,0,0-.18-.516.693.693,0,0,0-.516-.18m.192-.324a1.317,1.317,0,0,1,.5.168V44.188H83.309V44.9h.252a.825.825,0,0,1,.768.78v.468Z" transform="translate(15.783 8.26)" fill="url(#f)"/><path d="M88.336,43.85v.336h-.36v4.383H86.7a1.158,1.158,0,0,1-.877-.336,1.234,1.234,0,0,1-.336-.889V45.219l1.969-.828V44.2H85.13v-.336h3.218Zm-.889,4.383V44.739l-1.441.612v2.173a.629.629,0,0,0,.7.7h.744Zm-1.249.684h1.057v.336H86.2Z" transform="translate(16.327 8.262)" fill="url(#g)"/><path d="M87.742,44.186V43.85h1.249v.336h-.372v4.383H88.1V44.186H87.73Z" transform="translate(16.848 8.262)" fill="url(#h)"/><path d="M92.01,44.186H88.72V43.85h3.29Zm-2.4,2.87v.468a.629.629,0,0,0,.7.7H91.65v.336H90.293a1.158,1.158,0,0,1-.877-.336,1.234,1.234,0,0,1-.336-.889V46.9l1.753-.708a.373.373,0,0,0,.288-.348V44.811H89.933a.293.293,0,0,0-.24.1.335.335,0,0,0-.1.24v.913H89.08v-.792a.723.723,0,0,1,.24-.54.743.743,0,0,1,.528-.24h1.789v1.165a.8.8,0,0,1-.168.468.968.968,0,0,1-.444.372l-1.429.576h0Z" transform="translate(17.047 8.262)" fill="url(#i)"/><path d="M96.192,45.111l-.877-.372v3.818H94.043a1.158,1.158,0,0,1-.877-.336,1.234,1.234,0,0,1-.336-.889V45.207l1.969-.828v-.192H92.47V43.85h4.611v.336H95.316v.192l1.393.588V46.8a.769.769,0,0,1-.24.54.743.743,0,0,1-.528.24h-.3v-.336h.216a.328.328,0,0,0,.336-.336v-1.8h0ZM94.8,48.221V44.727l-1.441.612v2.173a.629.629,0,0,0,.7.7H94.8Z" transform="translate(17.8 8.262)" fill="url(#j)"/><path d="M96.25,44.186V43.85H97.5v.336h-.372v4.383H96.61V44.186Z" transform="translate(18.559 8.262)" fill="url(#k)"/><path d="M98.887,43.852v.336h-.072a.731.731,0,0,0-.516.18.711.711,0,0,0-.18.516v2.642a.629.629,0,0,0,.7.7h.036v.336H98.8a1.158,1.158,0,0,1-.877-.336,1.226,1.226,0,0,1-.324-.889V45.065a1.226,1.226,0,0,1,.324-.889h-.7V43.84h1.657Z" transform="translate(18.755 8.26)" fill="url(#l)"/><path d="M101.5,44.993v3.566h-1.417a1.14,1.14,0,0,1-.877-.336,1.234,1.234,0,0,1-.336-.889v-.816l1.177-.492v-.4a.374.374,0,0,0-.216-.384l-.961-.408v-.66h-.36V43.84h4.719v.336H99.4v.516l.672.288a.832.832,0,0,1,.516.841v.348l-1.177.5v.865a.629.629,0,0,0,.7.7h.9V44.668h1.1a.825.825,0,0,1,.768.78V46.71a.769.769,0,0,1-.24.54.743.743,0,0,1-.528.24H101.9v-.336h.144a.293.293,0,0,0,.24-.1.335.335,0,0,0,.1-.24V45.329a.293.293,0,0,0-.1-.24.335.335,0,0,0-.24-.1h-.5Z" transform="translate(19.012 8.26)" fill="url(#m)"/><path d="M103.259,45.5v1.945a.629.629,0,0,0,.7.7h.492v.336h-.492a1.158,1.158,0,0,1-.877-.336,1.226,1.226,0,0,1-.324-.889V45.161h.816a1.265,1.265,0,0,1,.684.18v-.18h.672a1.265,1.265,0,0,1,.684.18V44.176H102.37V43.84h4.118v.336h-.36v4.383h-.516V46.205a.711.711,0,0,0-.18-.516.693.693,0,0,0-.516-.18h-.144V46.7h-.516v-.48a.629.629,0,0,0-.7-.7h-.288Z" transform="translate(19.787 8.26)" fill="url(#n)"/><path d="M105.742,44.186V43.85h1.249v.336h-.372v4.383H106.1V44.186h-.372Z" transform="translate(20.461 8.262)" fill="url(#o)"/><path d="M23.56,55.858h8.165V50.55h7.769v5.307H52.966V37.066H44.8V50.538h2.858V39.912H50.12V53H42.351V37.066H28.879v8.165h8.165V42.386H31.725V39.924h7.769v7.769H28.867V53H26.406V26.428L50.12,30.27v3.9h2.858V27.845L23.62,23.09h-.06V55.846Z" transform="translate(3.968 4.095)" fill="#26374a"/><path d="M20.019,39.162v9.75l-2.461-.684V44.469H14.7V50.4l8.165,2.245V39.15H20.007Z" transform="translate(2.19 7.318)" fill="#26374a"/><rect width="2.858" height="2.846" transform="translate(22.209 41.161)" fill="#ca8d3f"/><rect width="2.858" height="2.846" transform="translate(38.143 57.107)" fill="#ca8d3f"/><path d="M14.712,24.361V45.241h2.846V26.786l2.461-.4v8.225h2.846V23.04L14.7,24.361Z" transform="translate(2.19 4.085)" fill="#26374a"/><path d="M14.71,19.523V22.4l8.165-1.273V18.25L14.71,19.511Z" transform="translate(2.192 3.123)" fill="#ca8d3f"/><path d="M23.56,18.25v2.894L52.93,25.9h.06V23.017L23.62,18.262h-.06Z" transform="translate(3.968 3.123)" fill="#ca8d3f"/></g></svg>