<svg width="50" height="50" viewBox="0 0 50 50" fill="none" xmlns="http://www.w3.org/2000/svg">
<path opacity="0.1" d="M25 50C38.8071 50 50 38.8071 50 25C50 11.1929 38.8071 0 25 0C11.1929 0 0 11.1929 0 25C0 38.8071 11.1929 50 25 50Z" fill="#FF742C"/>
<path d="M32.7117 23.0356C26.1668 21.134 20.2065 22.2486 17.3284 23.0462C16.206 23.3567 15.3048 24.2267 14.9009 25.371L12.9772 30.8331L13.0112 30.9012H12.9517V36.4505C12.9517 36.7802 13.2067 37.0482 13.5192 37.0482H16.9564C17.2689 37.0482 17.5239 36.7802 17.5239 36.4505V34.9254C17.5239 34.5957 17.779 34.3277 18.0915 34.3277H31.9082C32.2207 34.3277 32.4758 34.5957 32.4758 34.9254V36.4505C32.4758 36.7802 32.7309 37.0482 33.0433 37.0482H36.4805C36.793 37.0482 37.048 36.7802 37.048 36.4505V31.0075C37.048 30.9373 37.0353 30.8671 37.0141 30.8012L35.118 25.3667C34.7205 24.2267 33.8234 23.3589 32.7096 23.0356H32.7117Z" fill="url(#paint0_linear_225_95)"/>
<path d="M19.8092 19.4579V16.2416C19.8092 15.9223 20.069 15.666 20.3879 15.666H29.3092C29.6303 15.666 29.8879 15.9244 29.8879 16.2416V19.418C29.8879 19.6974 30.0907 19.9327 30.3674 19.9831C31.3241 20.1554 32.2661 20.3718 33.187 20.6386C33.5059 20.731 33.8122 20.8508 34.1057 20.9936C34.4901 21.1827 34.94 20.9054 34.94 20.4789V13.5274C34.94 13.2081 34.6802 12.9518 34.3613 12.9518H15.338C15.0169 12.9518 14.7593 13.2102 14.7593 13.5274V20.5083C14.7593 20.9348 15.207 21.2142 15.5893 21.023C15.9103 20.8655 16.2483 20.7352 16.5989 20.6386C17.3423 20.4348 18.2674 20.2163 19.3298 20.0251C19.6064 19.9747 19.8113 19.7373 19.8113 19.4579H19.8092Z" fill="url(#paint1_linear_225_95)"/>
<defs>
<linearGradient id="paint0_linear_225_95" x1="12.9538" y1="29.5186" x2="37.0523" y2="29.5186" gradientUnits="userSpaceOnUse">
<stop stop-color="#FFAE53"/>
<stop offset="1" stop-color="#FF742C"/>
</linearGradient>
<linearGradient id="paint1_linear_225_95" x1="14.7572" y1="17.0168" x2="34.94" y2="17.0168" gradientUnits="userSpaceOnUse">
<stop stop-color="#FFD199"/>
<stop offset="1" stop-color="#FFAD81"/>
</linearGradient>
</defs>
</svg>
