<svg width="50" height="50" viewBox="0 0 50 50" fill="none" xmlns="http://www.w3.org/2000/svg">
<path opacity="0.1" d="M25 50C38.8071 50 50 38.8071 50 25C50 11.1929 38.8071 0 25 0C11.1929 0 0 11.1929 0 25C0 38.8071 11.1929 50 25 50Z" fill="#FB2C64"/>
<path d="M38.3233 16.0498V31.8192C38.3233 33.105 37.2744 34.2857 35.988 34.4453L35.576 34.4979C33.4005 34.7899 30.3337 35.6912 27.866 36.7269C27.0042 37.0841 26.0479 36.4349 26.0479 35.4937V17.0457C26.0479 16.5541 26.3274 16.1045 26.7646 15.865C29.1924 14.5519 32.8687 13.3859 35.3637 13.1737H35.4436C37.0369 13.1737 38.3233 14.4595 38.3233 16.0519V16.0498Z" fill="url(#paint0_linear_225_97)"/>
<path d="M23.2481 15.8647C20.8203 14.5518 17.144 13.3859 14.6489 13.1737H14.5564C12.9631 13.1737 11.6768 14.4593 11.6768 16.0517V31.8197C11.6768 33.1053 12.7256 34.2859 14.012 34.4455L14.424 34.4981C16.5995 34.7901 19.6663 35.6913 22.134 36.7269C22.9958 37.084 23.9522 36.4349 23.9522 35.4938V17.0474C23.9522 16.5433 23.6874 16.1063 23.2481 15.8668V15.8647ZM15.6705 19.8834H18.6553C19.1997 19.8834 19.6495 20.335 19.6495 20.877C19.6495 21.419 19.1976 21.8707 18.6553 21.8707H15.6705C15.1261 21.8707 14.6762 21.4337 14.6762 20.877C14.6762 20.3203 15.1282 19.8834 15.6705 19.8834ZM19.6516 25.8515H15.6705C15.1261 25.8515 14.6762 25.4146 14.6762 24.8579C14.6762 24.3012 15.1282 23.8642 15.6705 23.8642H19.6516C20.196 23.8642 20.6458 24.3159 20.6458 24.8579C20.6458 25.3999 20.1939 25.8515 19.6516 25.8515Z" fill="url(#paint1_linear_225_97)"/>
<defs>
<linearGradient id="paint0_linear_225_97" x1="26.05" y1="24.9976" x2="38.3233" y2="24.9976" gradientUnits="userSpaceOnUse">
<stop stop-color="#FFAEA4"/>
<stop offset="1" stop-color="#FF9298"/>
</linearGradient>
<linearGradient id="paint1_linear_225_97" x1="11.6768" y1="24.9986" x2="23.9501" y2="24.9986" gradientUnits="userSpaceOnUse">
<stop stop-color="#FF7A68"/>
<stop offset="1" stop-color="#FB2C64"/>
</linearGradient>
</defs>
</svg>
