<svg xmlns="http://www.w3.org/2000/svg" width="22.081" height="23.968" viewBox="0 0 22.081 23.968"><g transform="translate(-0.969 -0.004)"><path d="M1.32,8.77c3.46,1.18,6.92,2.38,10.39,3.57a.828.828,0,0,0,.56,0q5.22-1.785,10.43-3.58a.429.429,0,0,0,.34-.49c-.01-1.26-.02-2.53,0-3.79a.536.536,0,0,0-.42-.59C19.17,2.62,15.72,1.33,12.27.06A.759.759,0,0,0,11.8.03Q6.55,1.98,1.29,3.93a.413.413,0,0,0-.32.47c.02.65,0,1.29,0,1.94,0,.63.01,1.26,0,1.9a.461.461,0,0,0,.35.53ZM6.55,3.98C8.28,3.34,10,2.69,11.73,2.06a.792.792,0,0,1,.48-.02c1.79.65,3.57,1.32,5.36,1.99.07.02.13.06.27.12-1.95.67-3.82,1.32-5.69,1.96a.386.386,0,0,1-.28,0C9.99,5.47,8.11,4.82,6.16,4.15c.17-.07.28-.13.39-.17Z" fill="#999"/><path d="M23.04,19.37c-.02-2.47,0-6.67-.01-9.14,0-.14-.02-.29-.03-.43-.44,0-.55.21-.54.59a4.867,4.867,0,0,1-.09,1.01,5.524,5.524,0,0,1-1,2.54,1.526,1.526,0,0,1-2.74-.13,9.469,9.469,0,0,1-.66-1.65,4.724,4.724,0,0,1-.12-.46c-.05.55-.07,1-.15,1.44a5.159,5.159,0,0,1-1.06,2.56,1.482,1.482,0,0,1-2.58-.1,7.235,7.235,0,0,1-.7-1.58,5.427,5.427,0,0,1-.19-.86,3.877,3.877,0,0,1-1.15.33,4.669,4.669,0,0,1-1.18-.33c-.04.2-.07.36-.1.53a4.455,4.455,0,0,1-.9,2.09,1.41,1.41,0,0,1-2.28.09,4.005,4.005,0,0,1-.86-1.39,25.557,25.557,0,0,1-.58-2.49,12.469,12.469,0,0,1-.56,1.53c-.8,1.56-2.18,1.61-3.12.14a3,3,0,0,1-.41-.82c-.19-.82-.37-1.64-.48-2.48C1.5,9.97,1.4,9.8.98,9.8v9.54a.6.6,0,0,0,.49.68c3.41,1.16,6.81,2.74,10.22,3.9a1,1,0,0,0,.64,0c3.42-1.17,6.84-2.75,10.26-3.92a.58.58,0,0,0,.46-.65Z" fill="#999"/><path d="M7.29,13.34c.93,1.32,2.29,1.14,2.96-.39-1.21-.42-2.41-.83-3.62-1.25-.05.04-.09.08-.14.12a11.554,11.554,0,0,0,.8,1.52Z" fill="#999"/><path d="M15.83,14.11a3.539,3.539,0,0,0,1.66-2.44c-1.33.46-2.53.87-3.74,1.29C14.2,14,15.05,14.48,15.83,14.11Z" fill="#999"/><path d="M2.76,11.85c.89,1.13,2.2.89,2.78-.51-1.2-.41-2.4-.83-3.59-1.24a1.2,1.2,0,0,1-.12.11,12.02,12.02,0,0,0,.94,1.64Z" fill="#999"/><path d="M20.62,12.38a3.692,3.692,0,0,0,1.52-2.32c-1.29.44-2.48.86-3.74,1.29.17.24.28.43.42.59a1.366,1.366,0,0,0,1.81.44Z" fill="#999"/></g></svg>