<svg width="50" height="51" viewBox="0 0 50 51" fill="none" xmlns="http://www.w3.org/2000/svg">
<path opacity="0.1" d="M25 50.3012C38.8071 50.3012 50 39.0409 50 25.1506C50 11.2603 38.8071 0 25 0C11.1929 0 0 11.2603 0 25.1506C0 39.0409 11.1929 50.3012 25 50.3012Z" fill="#266CFF"/>
<path d="M20.1727 13.8555H16.5742C14.9063 13.8555 13.5542 15.2498 13.5542 16.9699V20.6808C13.5542 22.4009 14.9063 23.7952 16.5742 23.7952H20.1727C21.8406 23.7952 23.1928 22.4009 23.1928 20.6808V16.9699C23.1928 15.2498 21.8406 13.8555 20.1727 13.8555Z" fill="url(#paint0_linear_225_90)"/>
<path d="M20.1727 26.8073H16.5742C14.9063 26.8073 13.5542 28.1594 13.5542 29.8273V33.4258C13.5542 35.0937 14.9063 36.4458 16.5742 36.4458H20.1727C21.8406 36.4458 23.1928 35.0937 23.1928 33.4258V29.8273C23.1928 28.1594 21.8406 26.8073 20.1727 26.8073Z" fill="url(#paint1_linear_225_90)"/>
<path d="M33.6325 13.8555H29.9215C28.2015 13.8555 26.8071 15.2498 26.8071 16.9699V20.6808C26.8071 22.4009 28.2015 23.7952 29.9215 23.7952H33.6325C35.3525 23.7952 36.7469 22.4009 36.7469 20.6808V16.9699C36.7469 15.2498 35.3525 13.8555 33.6325 13.8555Z" fill="url(#paint2_linear_225_90)"/>
<path d="M33.6325 26.8073H29.9215C28.2015 26.8073 26.8071 28.1594 26.8071 29.8273V33.4258C26.8071 35.0937 28.2015 36.4458 29.9215 36.4458H33.6325C35.3525 36.4458 36.7469 35.0937 36.7469 33.4258V29.8273C36.7469 28.1594 35.3525 26.8073 33.6325 26.8073Z" fill="url(#paint3_linear_225_90)"/>
<defs>
<linearGradient id="paint0_linear_225_90" x1="18.3745" y1="12.3728" x2="18.3745" y2="49.7501" gradientUnits="userSpaceOnUse">
<stop stop-color="#4298FF"/>
<stop offset="1" stop-color="#266CFF"/>
</linearGradient>
<linearGradient id="paint1_linear_225_90" x1="18.3745" y1="12.7214" x2="18.3745" y2="48.9661" gradientUnits="userSpaceOnUse">
<stop stop-color="#4298FF"/>
<stop offset="1" stop-color="#266CFF"/>
</linearGradient>
<linearGradient id="paint2_linear_225_90" x1="31.7781" y1="9.28867" x2="31.7781" y2="49.7199" gradientUnits="userSpaceOnUse">
<stop stop-color="#77B3FF"/>
<stop offset="1" stop-color="#6396FF"/>
</linearGradient>
<linearGradient id="paint3_linear_225_90" x1="31.7781" y1="12.7214" x2="31.7781" y2="48.9661" gradientUnits="userSpaceOnUse">
<stop stop-color="#4298FF"/>
<stop offset="1" stop-color="#266CFF"/>
</linearGradient>
</defs>
</svg>
