<svg xmlns="http://www.w3.org/2000/svg" width="24" height="24" viewBox="0 0 24 24"><path d="M0,0H24V24H0Z" fill="none"/><path d="M7,8H17c.3,0,.6.1.8.1a3.553,3.553,0,0,0,.2-1,3.728,3.728,0,0,0-1.7-3.2L12,1,7.7,3.8A4.318,4.318,0,0,0,6,7.1a2.959,2.959,0,0,0,.2,1C6.4,8.1,6.7,8,7,8ZM24,7c0-1.1-2-3-2-3s-2,1.9-2,3a1.936,1.936,0,0,0,1,1.7V13H19V11a2.006,2.006,0,0,0-2-2H7a2.006,2.006,0,0,0-2,2v2H3V8.7A1.936,1.936,0,0,0,4,7C4,5.9,2,4,2,4S0,5.9,0,7A1.936,1.936,0,0,0,1,8.7V21h9V17a2,2,0,0,1,4,0v4h9V8.7A1.936,1.936,0,0,0,24,7Z" fill="#999"/></svg>