<svg width="14" height="14" viewBox="0 0 14 14" fill="none" xmlns="http://www.w3.org/2000/svg">
<path d="M12.8767 9.18932C12.0196 9.18932 11.1781 9.05516 10.3804 8.79156C9.98958 8.65812 9.50906 8.78062 9.27063 9.02562L7.69635 10.2138C5.87089 9.23927 4.74615 8.11526 3.7851 6.30328L4.93865 4.77021C5.23833 4.47089 5.34589 4.03375 5.21682 3.62359C4.95214 2.82187 4.8176 1.98078 4.8176 1.12328C4.8176 0.503854 4.31375 0 3.69432 0H1.12328C0.503854 0 0 0.503854 0 1.12328C0 8.22354 5.77646 14 12.8767 14C13.4961 14 14 13.4961 14 12.8767V10.313C14 9.69354 13.4961 9.18969 12.8767 9.18969V9.18932Z" fill="#26374A"/>
</svg>
