<svg width="50" height="50" viewBox="0 0 50 50" fill="none" xmlns="http://www.w3.org/2000/svg">
<path opacity="0.1" d="M25 50C38.8071 50 50 38.8071 50 25C50 11.1929 38.8071 0 25 0C11.1929 0 0 11.1929 0 25C0 38.8071 11.1929 50 25 50Z" fill="#266CFF"/>
<path d="M32.9447 12.2754H24.2183C23.6666 12.2754 23.1359 12.4957 22.7457 12.8859L11.3888 24.2417C10.5748 25.0557 10.5748 26.3752 11.3888 27.1892L20.1152 35.9164C20.9291 36.7304 22.2485 36.7304 23.0624 35.9164L34.4194 24.5606C34.8096 24.1683 35.0298 23.6375 35.0298 23.0858V14.3607C35.0298 13.2089 34.0963 12.2775 32.9468 12.2775L32.9447 12.2754ZM29.2968 19.5697C28.4347 19.5697 27.734 18.869 27.734 18.0068C27.734 17.1446 28.4347 16.4439 29.2968 16.4439C30.159 16.4439 30.8596 17.1446 30.8596 18.0068C30.8596 18.869 30.159 19.5697 29.2968 19.5697Z" fill="url(#paint0_linear_225_98)"/>
<path d="M37.1513 14.3712V24.0891C37.1513 24.5704 36.9616 25.0328 36.6217 25.3732L25.1499 36.9364L25.325 37.1129C26.134 37.9284 27.4455 37.9284 28.2545 37.1129L38.6129 26.6741C39.0028 26.2832 39.2218 25.7515 39.2218 25.1988V16.4602C39.2218 15.3064 38.2939 14.3733 37.1513 14.3733V14.3712Z" fill="url(#paint1_linear_225_98)"/>
<defs>
<linearGradient id="paint0_linear_225_98" x1="10.7783" y1="24.4011" x2="35.0298" y2="24.4011" gradientUnits="userSpaceOnUse">
<stop stop-color="#4298FF"/>
<stop offset="1" stop-color="#266CFF"/>
</linearGradient>
<linearGradient id="paint1_linear_225_98" x1="25.152" y1="26.0479" x2="39.2238" y2="26.0479" gradientUnits="userSpaceOnUse">
<stop stop-color="#77B3FF"/>
<stop offset="1" stop-color="#6396FF"/>
</linearGradient>
</defs>
</svg>
