<svg xmlns="http://www.w3.org/2000/svg" width="17" height="17" viewBox="0 0 17 17"><g transform="translate(-972 -184)"><rect width="17" height="17" transform="translate(972 184)" fill="none"/><g transform="translate(284.074 -231.839)"><path d="M704.626,426l-6.372-6.2a2,2,0,0,0-.8-.4h-3.385a5,5,0,0,0-1.493-1.4,6.02,6.02,0,0,0-3.385-1.4,1.493,1.493,0,0,0-1.1.4,1.884,1.884,0,0,0,.2,1.9,7.943,7.943,0,0,0,1.991,2.1,13.169,13.169,0,0,0,1.991,1.2v2.6a1.237,1.237,0,0,0,.4.8h0l6.272,6.2c.5.5,1.195.3,1.692-.4l3.684-3.8C704.825,427.2,705.223,426.5,704.626,426Zm-12.345-5.4v.9a5.043,5.043,0,0,1-1.593-.9,6.958,6.958,0,0,1-1.792-2,1.432,1.432,0,0,1-.3-1.3,1.411,1.411,0,0,1,.6-.2,5.409,5.409,0,0,1,2.987,1.3,11.951,11.951,0,0,1,1.195,1.1.917.917,0,0,0-1.1.7C692.281,420.4,692.281,420.5,692.281,420.6Zm1.394,1.2a.87.87,0,0,1,.6-.8.858.858,0,0,1,0,.7.556.556,0,0,1-.6.1Zm.8.8a.759.759,0,0,1-.5-.2,2,2,0,0,0,.8-.4,1.167,1.167,0,0,0,.2-1,.756.756,0,0,1,.4.7.815.815,0,0,1-.8.9Z" fill="#929aa4"/></g></g></svg>