<svg xmlns="http://www.w3.org/2000/svg" width="17" height="17" viewBox="0 0 17 17"><g transform="translate(-998 -184)"><rect width="17" height="17" transform="translate(998 184)" fill="none"/><g transform="translate(289 -231)"><path d="M717.5,416.8h0a6.7,6.7,0,0,0-.1,13.4h0a6.77,6.77,0,0,0,6.7-6.65,6.641,6.641,0,0,0-6.6-6.75Zm1.3,6.75a1.1,1.1,0,0,1-.4.907l-3.3,3.325a.93.93,0,0,1-1.3-.1,1.066,1.066,0,0,1,0-1.31l3.2-3.123v-3.426a.9.9,0,0,1,.9-.907h0a.9.9,0,0,1,.9.907h0Z" fill="none"/><path d="M717.5,415a8.5,8.5,0,0,0-.1,17h.1a8.518,8.518,0,0,0,8.5-8.55,8.433,8.433,0,0,0-8.5-8.45Zm0,15.189h0a6.72,6.72,0,0,1-6.7-6.74,6.635,6.635,0,0,1,6.7-6.639h0a6.636,6.636,0,0,1,6.6,6.74,6.489,6.489,0,0,1-6.6,6.639Z" fill="#929aa4"/><path d="M717.9,418.9h0a.9.9,0,0,0-.9.91v3.438l-3.2,3.135a1.07,1.07,0,0,0,0,1.315,1.042,1.042,0,0,0,1.3,0l3.3-3.337a1.514,1.514,0,0,0,.4-.91v-3.741A.885.885,0,0,0,717.9,418.9Z" transform="translate(0 0)" fill="#929aa4"/></g></g></svg>