<svg xmlns="http://www.w3.org/2000/svg" xmlns:xlink="http://www.w3.org/1999/xlink" width="50" height="50" viewBox="0 0 50 50"><defs><clipPath id="a"><path d="M84.327,148.111l.031-.082-.031-.057Z" transform="translate(-84.327 -147.972)" fill="#ff9298"/></clipPath><clipPath id="b"><path d="M129.969,98.283h.374l-.187-1.375Z" transform="translate(-129.969 -96.908)" fill="none"/></clipPath><linearGradient id="c" x1="-81.178" y1="23.75" x2="-80.554" y2="23.75" gradientUnits="objectBoundingBox"><stop offset="0" stop-color="#ff7a68"/><stop offset="1" stop-color="#fb2c64"/></linearGradient></defs><g transform="translate(-1240 -333)"><path d="M50,25A25,25,0,1,1,25,0,25,25,0,0,1,50,25" transform="translate(1240 333.001)" fill="#fb2c64" opacity="0.1"/><g transform="translate(-15.951 -5.941)"><path d="M97.289,126.412l2.606.629-.842-1.265a1.393,1.393,0,0,1,.175-1.761l.786-.79V121.2a4.839,4.839,0,0,0-2.725,5.215" transform="translate(1178.809 243.855)" fill="#ff9298"/><path d="M105,120.16V122.5a1.335,1.335,0,0,1-.39.944l-.754.75.807,1.207a1.335,1.335,0,0,1-1.374,2.048l-1.655-.33a4.657,4.657,0,0,0,7.6.66h-.07a1.5,1.5,0,0,1-1.5-1.5v-.67a.165.165,0,0,0-.167-.164,1.5,1.5,0,0,1-1.5-1.5v-1a1.5,1.5,0,0,1,1.5-1.5h1.427A4.577,4.577,0,0,0,105,120.16" transform="translate(1175.422 244.691)" fill="#ff9298"/><path d="M125.817,131.115h0a.173.173,0,0,0-.171.175v1.052a.173.173,0,0,0,.175.171,1.575,1.575,0,0,1,1.573,1.573v.7a.173.173,0,0,0,.175.171h.895a4.825,4.825,0,0,0-.15-3.844Z" transform="translate(1157.025 236.254)" fill="#ff9298"/><path d="M79.248,93.548A6.254,6.254,0,1,1,85.5,99.8a6.254,6.254,0,0,1-6.254-6.254M82.9,82.528h.7l-.644,3.523h-.822L81.5,82.528h.665l.378,2.392Zm1.062,0h.779v3.523h-.779Zm4,0h.888l.657,3.523h-.718l-.117-.744h-.518l-.122.744H87.3Zm-1.606,2.727a.842.842,0,0,0-.387-.67l-.3-.265a1.134,1.134,0,0,1-.474-.918.874.874,0,0,1,.987-.922c.753,0,.861.587.874,1l-.67.082c-.009-.313-.031-.513-.231-.513-.143,0-.208.152-.208.274a.728.728,0,0,0,.339.579l.292.256a1.331,1.331,0,0,1,.548,1.057.868.868,0,0,1-.922.887c-.666,0-.988-.335-1.014-1.118l.666-.1c.009.457.113.627.309.627.161,0,.2-.135.2-.257m-7-5.885a3.871,3.871,0,0,0-3.86,3.86V99.052a3.871,3.871,0,0,0,3.86,3.86H91.649a3.871,3.871,0,0,0,3.86-3.86V83.23a3.871,3.871,0,0,0-3.86-3.86Z" transform="translate(1195.455 275.91)" fill="#fb2c64"/><path d="M91.8,56.6,81.034,58.976a3.583,3.583,0,0,0-1.977,1.207H94.414a5.457,5.457,0,0,1,1.969.371l-.264-1.2a3.639,3.639,0,0,0-3.544-2.844,3.6,3.6,0,0,0-.777.085" transform="translate(1192.726 293.426)" fill="#ff9298"/><g transform="translate(1273.014 371.308)"><g clip-path="url(#a)"><rect width="0.031" height="0.139" fill="#ff9298"/></g></g><g transform="translate(1283.677 359.378)"><g clip-path="url(#b)"><rect width="0.374" height="1.375" transform="translate(0)" fill="url(#c)"/></g></g></g></g></svg>