<svg width="50" height="50" viewBox="0 0 50 50" fill="none" xmlns="http://www.w3.org/2000/svg">
<path opacity="0.1" d="M25 50C38.8071 50 50 38.8071 50 25C50 11.1929 38.8071 0 25 0C11.1929 0 0 11.1929 0 25C0 38.8071 11.1929 50 25 50Z" fill="#B97BFF"/>
<path d="M15.8682 27.8843C15.8682 23.4056 19.5216 19.7605 24.0105 19.7605C26.7734 19.7605 29.3433 21.1652 30.8382 23.4585C30.4141 23.778 30.0303 24.2032 29.708 24.7236L25.762 31.0788L25.3294 30.3574C25.3294 30.3574 25.3273 30.3532 25.3252 30.351C24.5661 29.1092 23.4571 28.3963 22.2845 28.3899H22.2718C21.1034 28.3899 19.9924 29.0944 19.2269 30.3257C19.2269 30.3278 19.2248 30.3299 19.2226 30.332L17.6302 32.9342C16.4894 31.504 15.8682 29.7439 15.8682 27.8864V27.8843Z" fill="url(#paint0_linear_225_99)"/>
<path d="M20.7685 31.3035C21.179 30.628 21.699 30.2395 22.1979 30.2395H22.2021C22.7011 30.2395 23.2189 30.6344 23.6252 31.3143L27.545 38.0239H16.7666L20.7685 31.3013V31.3035Z" fill="url(#paint1_linear_225_99)"/>
<path d="M29.6493 38.024L26.6465 33.0405L31.1051 25.8925C31.5183 25.2293 32.0418 24.8503 32.5461 24.8503C33.0483 24.8503 33.5696 25.2356 33.9765 25.8967L41.3171 38.024H29.6514H29.6493Z" fill="url(#paint2_linear_225_99)"/>
<path d="M24.2517 17.3652C24.7471 17.3652 25.1499 16.9625 25.1499 16.4626V13.178C25.1499 12.6802 24.7492 12.2754 24.2517 12.2754C23.7543 12.2754 23.3535 12.6781 23.3535 13.178V16.4626C23.3535 16.9605 23.7543 17.3652 24.2517 17.3652Z" fill="url(#paint3_linear_225_99)"/>
<path d="M9.62465 29.6407H12.531C13.0506 29.6407 13.473 29.1732 13.473 28.5928C13.473 28.0125 13.0527 27.5449 12.531 27.5449H9.62465C9.10505 27.5449 8.68262 28.0125 8.68262 28.5928C8.68262 29.1708 9.10294 29.6407 9.62465 29.6407Z" fill="url(#paint4_linear_225_99)"/>
<path d="M14.9036 20.6907C15.0825 20.8696 15.3168 20.9581 15.5512 20.9581C15.7855 20.9581 16.0199 20.8676 16.1987 20.6907C16.5564 20.3327 16.5564 19.7526 16.1987 19.3946L13.8388 17.0349C13.4811 16.677 12.9014 16.677 12.5437 17.0349C12.186 17.3929 12.186 17.973 12.5437 18.331L14.9036 20.6907Z" fill="url(#paint5_linear_225_99)"/>
<path d="M32.4187 21.2575C32.6699 21.2575 32.9212 21.1671 33.1129 20.9902L35.6405 18.6297C36.0239 18.2719 36.0239 17.692 35.6405 17.3343C35.257 16.9765 34.6356 16.9765 34.2522 17.3343L31.7246 19.6948C31.3412 20.0526 31.3412 20.6324 31.7246 20.9902C31.9163 21.1691 32.1675 21.2575 32.4187 21.2575Z" fill="url(#paint6_linear_225_99)"/>
<defs>
<linearGradient id="paint0_linear_225_99" x1="15.8682" y1="26.3463" x2="30.8382" y2="26.3463" gradientUnits="userSpaceOnUse">
<stop stop-color="#E6D7F4"/>
<stop offset="1" stop-color="#CFBAFB"/>
</linearGradient>
<linearGradient id="paint1_linear_225_99" x1="22.1558" y1="32.361" x2="22.1558" y2="39.1936" gradientUnits="userSpaceOnUse">
<stop stop-color="#C39CF9"/>
<stop offset="1" stop-color="#867ADE"/>
</linearGradient>
<linearGradient id="paint2_linear_225_99" x1="33.9808" y1="24.1892" x2="33.9808" y2="38.3609" gradientUnits="userSpaceOnUse">
<stop stop-color="#C39CF9"/>
<stop offset="1" stop-color="#867ADE"/>
</linearGradient>
<linearGradient id="paint3_linear_225_99" x1="24.2517" y1="14.4327" x2="24.2517" y2="33.0192" gradientUnits="userSpaceOnUse">
<stop stop-color="#C39CF9"/>
<stop offset="1" stop-color="#867ADE"/>
</linearGradient>
<linearGradient id="paint4_linear_225_99" x1="11.0778" y1="12.785" x2="11.0778" y2="34.3633" gradientUnits="userSpaceOnUse">
<stop stop-color="#C39CF9"/>
<stop offset="1" stop-color="#867ADE"/>
</linearGradient>
<linearGradient id="paint5_linear_225_99" x1="14.3712" y1="14.5395" x2="14.3712" y2="33.4332" gradientUnits="userSpaceOnUse">
<stop stop-color="#C39CF9"/>
<stop offset="1" stop-color="#867ADE"/>
</linearGradient>
<linearGradient id="paint6_linear_225_99" x1="33.6836" y1="14.6344" x2="33.6836" y2="33.5188" gradientUnits="userSpaceOnUse">
<stop stop-color="#C39CF9"/>
<stop offset="1" stop-color="#867ADE"/>
</linearGradient>
</defs>
</svg>
