<svg xmlns="http://www.w3.org/2000/svg" width="17" height="17" viewBox="0 0 17 17"><g transform="translate(-1019 -184)"><rect width="17" height="17" transform="translate(1019 184)" fill="none"/><g transform="translate(1019 184)"><path d="M4.6,11.6l.8-1.4h0A1.984,1.984,0,0,1,7,9.2H7a1.984,1.984,0,0,1,1.6,1h0l.2.4,2-3.3a4.349,4.349,0,0,1,.6-.7A4.1,4.1,0,0,0,7.9,4.8,4.225,4.225,0,0,0,3.7,9,4.109,4.109,0,0,0,4.6,11.6Z" fill="#929aa4"/><path d="M8,3.6a.458.458,0,0,0,.5-.4V1.3a.5.5,0,0,0-1,0V3.1A.642.642,0,0,0,8,3.6Z" fill="#929aa4"/><path d="M2,8.9H.5a.458.458,0,0,0-.5.4v.1c0,.3.2.4.5.4H2a.458.458,0,0,0,.5-.4V9.3C2.5,9,2.3,8.9,2,8.9Z" fill="#929aa4"/><path d="M3.2,5.3a.367.367,0,0,0,.3.1c.1,0,.3,0,.3-.1a.483.483,0,0,0,0-.7h0L2.7,3.3A.495.495,0,0,0,2,4Z" fill="#929aa4"/><path d="M12.4,5.5c.1,0,.3,0,.3-.1L14,4.1a.495.495,0,1,0-.7-.7L12,4.7a.483.483,0,0,0,0,.7h0C12.1,5.5,12.2,5.5,12.4,5.5Z" fill="#929aa4"/><path d="M7,10.3H7c-.3,0-.5.2-.7.5L3.1,16.2H11L7.8,10.8A1.02,1.02,0,0,0,7,10.3Z" fill="#929aa4"/><path d="M13.2,7.9c-.1-.3-.4-.4-.7-.5-.3,0-.5.2-.7.5L9.5,11.6l2.7,4.6H17v-2Z" fill="#929aa4"/></g></g></svg>